<?xml version="1.0" encoding="UTF-8"?>
<!DOCTYPE svg PUBLIC "-//W3C//DTD SVG 1.1//EN" "http://www.w3.org/Graphics/SVG/1.1/DTD/svg11.dtd">
<!-- Creator: CorelDRAW -->
<svg xmlns="http://www.w3.org/2000/svg" xml:space="preserve" width="168px" height="42px" style="shape-rendering:geometricPrecision; text-rendering:geometricPrecision; image-rendering:optimizeQuality; fill-rule:evenodd; clip-rule:evenodd"
viewBox="0 0 168 49.6"
 xmlns:xlink="http://www.w3.org/1999/xlink">
 <defs>
  <style type="text/css">
   <![CDATA[
    .fil17 {fill:none}
    .fil1 {fill:#00923F}
    .fil16 {fill:#6C3A76}
    .fil15 {fill:black;fill-opacity:0.000000}
    .fil0 {fill:url(#id2)}
    .fil4 {fill:url(#id3)}
    .fil8 {fill:url(#id4)}
    .fil13 {fill:url(#id5)}
    .fil10 {fill:url(#id6)}
    .fil9 {fill:url(#id7)}
    .fil5 {fill:url(#id8)}
    .fil14 {fill:url(#id9)}
    .fil6 {fill:url(#id10)}
    .fil11 {fill:url(#id11)}
    .fil12 {fill:url(#id12)}
    .fil7 {fill:url(#id13)}
    .fil3 {fill:url(#id14)}
    .fil2 {fill:url(#id15)}
   ]]>
  </style>
   <clipPath id="id0">
    <path d="M50.9423 37.0681l10.6646 -25.5803 9.54616 -0.07448 11.0379 25.7298 -8.42768 0.07448 -2.75968 -5.44408 -8.27824 0 -2.98312 5.44408 -8.80048 -0.14944 0.00048 0zm94.7562 -4.14216l-0.03704 4.32208 16.0957 -0.07448c0.63896,-0.00304 3.01792,-0.2984 3.12992,-4.21056 0.1864,-6.14744 -0.81976,-7.45152 -3.91224,-7.52648 -3.09288,-0.07448 -8.90496,0 -8.90496,0l-0.03744 -3.27888 11.8855 0.03704 0.03696 -4.28456 -15.0525 0c0,0 -3.01792,-0.22344 -3.12944,2.72 -0.11192,2.94352 -0.07448,5.77512 -0.07448,5.77512 0,0 -0.26088,3.2044 3.61424,3.24144 2.95096,0.02832 6.39448,0.01872 9.59496,0.07448l-0.05664 3.31632 -13.1526 -0.11152zm-10.805 -21.4983l7.4516 0 0 4.28504 -7.4516 0 0 -4.28504zm0.17336 25.7899l7.30872 0.07448 0 -19.2413 -7.45768 -0.07448 0.14944 19.2413 -0.00048 0zm-34.6047 -19.3158l0 19.3158 7.45768 0 0.01352 -2.5428 0 -11.4034 0.06096 0 5.14616 0 0.68464 0 0 13.9462 5.87832 0 0.01352 -2.52928 0 -11.4169 5.2816 0 0.61016 0 0 13.8717 6.02728 0 -0.14896 -15.9602c0,0 0.37288,-3.20664 -3.28152,-3.28152 -3.65432,-0.07448 -27.7434,0 -27.7434,0l0 0.0004zm-16.0917 19.3088l6.4088 -0.07448 0.03704 -13.7859c0,0 -0.11152,-1.08016 1.08064,-1.15504 1.19208,-0.07456 5.29072,0 5.29072,0l1.0436 -0.03704 0.074 -4.25496 -10.7566 0.00608c0,0 -3.10336,-0.18512 -3.17784,3.16824 -0.07448,3.35336 0,16.1331 0,16.1331l-0.0004 0zm-20.5262 -10.7322l5.3696 0.07448 -2.6848 -7.90544 -2.6848 7.83096z"/>
   </clipPath>
   <clipPath id="id1">
    <path d="M50.9423 37.0681l10.6646 -25.5803 9.54616 -0.07448 11.0379 25.7298 -8.42768 0.07448 -2.75968 -5.44408 -8.27824 0 -2.98312 5.44408 -8.80048 -0.14944 0.00048 0zm94.7562 -4.14216l-0.03704 4.32208 16.0957 -0.07448c0.63896,-0.00304 3.01792,-0.2984 3.12992,-4.21056 0.1864,-6.14744 -0.81976,-7.45152 -3.91224,-7.52648 -3.09288,-0.07448 -8.90496,0 -8.90496,0l-0.03744 -3.27888 11.8855 0.03704 0.03696 -4.28456 -15.0525 0c0,0 -3.01792,-0.22344 -3.12944,2.72 -0.11192,2.94352 -0.07448,5.77512 -0.07448,5.77512 0,0 -0.26088,3.2044 3.61424,3.24144 2.95096,0.02832 6.39448,0.01872 9.59496,0.07448l-0.05664 3.31632 -13.1526 -0.11152zm-10.805 -21.4983l7.4516 0 0 4.28504 -7.4516 0 0 -4.28504zm0.17336 25.7899l7.30872 0.07448 0 -19.2413 -7.45768 -0.07448 0.14944 19.2413 -0.00048 0zm-34.6047 -19.3158l0 19.3158 7.45768 0 0.01352 -2.5428 0 -11.4034 0.06096 0 5.14616 0 0.68464 0 0 13.9462 5.87832 0 0.01352 -2.52928 0 -11.4169 5.2816 0 0.61016 0 0 13.8717 6.02728 0 -0.14896 -15.9602c0,0 0.37288,-3.20664 -3.28152,-3.28152 -3.65432,-0.07448 -27.7434,0 -27.7434,0l0 0.0004zm-16.0917 19.3088l6.4088 -0.07448 0.03704 -13.7859c0,0 -0.11152,-1.08016 1.08064,-1.15504 1.19208,-0.07456 5.29072,0 5.29072,0l1.0436 -0.03704 0.074 -4.25496 -10.7566 0.00608c0,0 -3.10336,-0.18512 -3.17784,3.16824 -0.07448,3.35336 0,16.1331 0,16.1331l-0.0004 0zm-20.5262 -10.7322l5.3696 0.07448 -2.6848 -7.90544 -2.6848 7.83096z"/>
   </clipPath>
  <linearGradient id="id2" gradientUnits="userSpaceOnUse" x1="21.928" y1="14.4042" x2="21.928" y2="31.2063">
   <stop offset="0" style="stop-color:#376291"/>
   <stop offset="1" style="stop-color:#974578"/>
  </linearGradient>
  <linearGradient id="id3" gradientUnits="userSpaceOnUse" x1="6.83496" y1="5.08504" x2="36.9565" y2="5.08504">
   <stop offset="0" style="stop-color:#FCEE01"/>
   <stop offset="0.478431" style="stop-color:#00923F"/>
   <stop offset="1" style="stop-color:#FFF500"/>
  </linearGradient>
  <linearGradient id="id4" gradientUnits="userSpaceOnUse" x1="1.70104" y1="35.4918" x2="12.8775" y2="11.543">
   <stop offset="0" style="stop-color:#5F3A74"/>
   <stop offset="1" style="stop-color:#398FCA"/>
  </linearGradient>
  <linearGradient id="id5" gradientUnits="userSpaceOnUse" x1="30.8648" y1="35.4944" x2="42.1466" y2="11.3183">
   <stop offset="0" style="stop-color:#5F3A74"/>
   <stop offset="1" style="stop-color:#398FCA"/>
  </linearGradient>
  <linearGradient id="id6" gradientUnits="userSpaceOnUse" x1="21.9567" y1="48.2877" x2="27.0762" y2="34.6364">
   <stop offset="0" style="stop-color:#E77817"/>
   <stop offset="1" style="stop-color:#FFF500"/>
  </linearGradient>
  <linearGradient id="id7" gradientUnits="userSpaceOnUse" x1="16.6603" y1="48.2877" x2="21.7798" y2="34.6364">
   <stop offset="0" style="stop-color:#E77817"/>
   <stop offset="1" style="stop-color:#FFF500"/>
  </linearGradient>
  <linearGradient id="id8" gradientUnits="userSpaceOnUse" x1="21.799" y1="7.7724" x2="21.799" y2="0.45064">
   <stop offset="0" style="stop-color:#FCEE01"/>
   <stop offset="1" style="stop-color:#00923F"/>
  </linearGradient>
  <linearGradient id="id9" gradientUnits="userSpaceOnUse" x1="164.761" y1="38.5412" x2="51.2542" y2="10.1645">
   <stop offset="0" style="stop-color:#007CC3"/>
   <stop offset="1" style="stop-color:#901E78"/>
  </linearGradient>
  <linearGradient id="id10" gradientUnits="userSpaceOnUse" x1="18.2397" y1="28.762" x2="9.00584" y2="44.9204">
   <stop offset="0" style="stop-color:#E77817"/>
   <stop offset="1" style="stop-color:#DD137B"/>
  </linearGradient>
  <linearGradient id="id11" gradientUnits="userSpaceOnUse" xlink:href="#id10" x1="34.743" y1="28.762" x2="25.5091" y2="44.9204">
  </linearGradient>
  <linearGradient id="id12" gradientUnits="userSpaceOnUse" x1="36.615" y1="43.3293" x2="31.7681" y2="21.5174">
   <stop offset="0" style="stop-color:#DD137B"/>
   <stop offset="1" style="stop-color:#5F3A74"/>
  </linearGradient>
  <linearGradient id="id13" gradientUnits="userSpaceOnUse" xlink:href="#id12" x1="12.5404" y1="43.2635" x2="6.51744" y2="21.5831">
  </linearGradient>
  <linearGradient id="id14" gradientUnits="userSpaceOnUse" x1="21.7611" y1="19.0177" x2="42.0843" y2="7.40392">
   <stop offset="0" style="stop-color:#398FCA"/>
   <stop offset="1" style="stop-color:#84C225"/>
  </linearGradient>
  <linearGradient id="id15" gradientUnits="userSpaceOnUse" x1="3.19024" y1="21.1127" x2="20.5751" y2="5.30888">
   <stop offset="0" style="stop-color:#398FCA"/>
   <stop offset="1" style="stop-color:#84C225"/>
  </linearGradient>
 </defs>
 <g id="Слой_x0020_1">
  <metadata id="CorelCorpID_0Corel-Layer"/>
  <path class="fil0" d="M18.4143 20.4137l0.76568 -3.82776 -6.04288 -2.18168 1.47 2.572 3.84072 1.32752 -0.03312 2.10992 -0.0004 0zm-0.24264 1.93208l3.7968 0.94912 0.01352 0 3.79672 -0.94912 -0.09192 1.07152 -2.97 1.92904 -0.03056 2.4496 5.92584 3.4104 -6.63664 -2.41648 -6.29296 2.31376 5.58216 -3.30768 -0.03048 -2.4496 -2.97008 -1.92904 -0.09192 -1.07152 -0.00048 0zm7.54872 -1.84896l-1.21048 -4.24448 6.20896 -1.73656 -1.37728 2.45 -3.82112 1.1804 0.19992 2.35064z"/>
  <path class="fil1" d="M31.5717 6.64168c0.93728,1.27928 3.13736,1.11288 5.0076,1.11288l0.13896 0c0.78184,0 1.45,3.16256 2.08632,3.8948 0,-1.24576 -0.3728,-6.12048 -2.504,-6.12048 -0.73568,0 -3.87952,0.91464 -4.72936,1.1128l0.00048 0z"/>
  <path class="fil1" d="M11.9158 6.64168c-0.93728,1.27928 -3.13728,1.11288 -5.0076,1.11288l-0.13896 0c-0.78184,0 -1.45,3.16256 -2.08632,3.8948 0,-1.24576 0.37288,-6.12048 2.504,-6.12048 0.73568,0 3.87952,0.91464 4.72936,1.1128l-0.00048 0z"/>
  <path class="fil2" d="M21.9101 5.66304l-0.01432 2.10936c-11.2257,0.52792 -17.6602,9.75656 -20.041,12.9862 1.92472,-9.0684 8.44288,-14.8517 20.0553,-15.0952l0 -0.0004z"/>
  <path class="fil3" d="M21.8953 5.66304l0.01392 2.10936c11.2257,0.52792 17.6602,9.75656 20.041,12.9862 -1.92472,-9.0684 -8.44288,-14.8517 -20.0553,-15.0952l0.0004 -0.0004z"/>
  <polygon class="fil4" points="21.8962,7.7724 21.8958,7.772 21.8953,7.7724 21.8953,7.772 6.83496,2.67552 21.8578,2.3976 21.8958,7.71928 21.9336,2.3976 36.9565,2.67552 21.8962,7.772 "/>
  <polygon class="fil5" points="29.2519,0.46416 21.8962,7.7724 14.3462,0.45024 21.8578,2.3976 "/>
  <polygon class="fil6" points="9.31328,34.6978 11.4445,28.3678 17.1198,38.677 17.5022,41.0082 17.9317,45.3146 11.2925,36.265 "/>
  <path class="fil7" d="M5.26872 28.3273l0.25 -2.44432 3.052 -4.19096c0.95816,10.7313 2.36504,13.717 5.2188,21.4626 -5.51416,-3.92968 -8.23248,-9.55488 -8.52128,-14.8274l0.00048 0z"/>
  <path class="fil8" d="M4.236 17.8486c2.41432,-3.83728 5.66448,-5.39744 9.16416,-6.06168 -6.59352,5.96192 -8.13448,12.079 -8.21248,23.4605 -4.00976,-7.91496 -2.19432,-13.5341 -0.95168,-17.3988z"/>
  <polygon class="fil9" points="17.3877,40.9642 21.8683,48.255 21.8683,41.4071 16.5719,34.6695 17.1198,38.677 "/>
  <polygon class="fil10" points="26.3494,40.9642 21.8683,48.255 21.8683,41.4071 27.1647,34.6695 26.6285,38.677 "/>
  <polygon class="fil11" points="34.435,34.6978 32.3043,28.3678 26.6285,38.677 25.8166,45.3146 32.4563,36.265 "/>
  <path class="fil12" d="M38.4518 28.3273l-0.25 -2.44432 -3.052 -4.19096c-0.95816,10.7313 -2.36504,13.717 -5.2188,21.4626 5.51416,-3.92968 8.23248,-9.55488 8.5212,-14.8274l-0.0004 0z"/>
  <path class="fil13" d="M39.5877 17.6836c-2.43736,-3.87392 -5.718,-5.44888 -9.25128,-6.1192 6.65624,6.01856 8.21208,12.1939 8.29048,23.6835 4.0476,-7.98992 2.2152,-13.6626 0.9608,-17.5639l0 -0.0004z"/>
  <path class="fil14" d="M50.9423 37.0681l10.6646 -25.5803 9.54616 -0.07448 11.0379 25.7298 -8.42768 0.07448 -2.75968 -5.44408 -8.27824 0 -2.98312 5.44408 -8.80048 -0.14944 0.00048 0zm94.7562 -4.14216l-0.03704 4.32208 16.0957 -0.07448c0.63896,-0.00304 3.01792,-0.2984 3.12992,-4.21056 0.1864,-6.14744 -0.81976,-7.45152 -3.91224,-7.52648 -3.09288,-0.07448 -8.90496,0 -8.90496,0l-0.03744 -3.27888 11.8855 0.03704 0.03696 -4.28456 -15.0525 0c0,0 -3.01792,-0.22344 -3.12944,2.72 -0.11192,2.94352 -0.07448,5.77512 -0.07448,5.77512 0,0 -0.26088,3.2044 3.61424,3.24144 2.95096,0.02832 6.39448,0.01872 9.59496,0.07448l-0.05664 3.31632 -13.1526 -0.11152zm-10.805 -21.4983l7.4516 0 0 4.28504 -7.4516 0 0 -4.28504zm0.17336 25.7899l7.30872 0.07448 0 -19.2413 -7.45768 -0.07448 0.14944 19.2413 -0.00048 0zm-34.6047 -19.3158l0 19.3158 7.45768 0 0.01352 -2.5428 0 -11.4034 0.06096 0 5.14616 0 0.68464 0 0 13.9462 5.87832 0 0.01352 -2.52928 0 -11.4169 5.2816 0 0.61016 0 0 13.8717 6.02728 0 -0.14896 -15.9602c0,0 0.37288,-3.20664 -3.28152,-3.28152 -3.65432,-0.07448 -27.7434,0 -27.7434,0l0 0.0004zm-16.0917 19.3088l6.4088 -0.07448 0.03704 -13.7859c0,0 -0.11152,-1.08016 1.08064,-1.15504 1.19208,-0.07456 5.29072,0 5.29072,0l1.0436 -0.03704 0.074 -4.25496 -10.7566 0.00608c0,0 -3.10336,-0.18512 -3.17784,3.16824 -0.07448,3.35336 0,16.1331 0,16.1331l-0.0004 0zm-20.5262 -10.7322l5.3696 0.07448 -2.6848 -7.90544 -2.6848 7.83096z"/>
  <g style="clip-path:url(#id0)">
   <polygon class="fil15" points="50.9418,11.4133 164.908,11.4133 164.908,37.292 50.9418,37.292 "/>
  </g>
  <g style="clip-path:url(#id1)">
   <g id="_112228544">
    <polygon id="_11072517611" class="fil16" points="35.4947,-6.89808 148.508,-26.0562 165.571,-46.3179 55.655,-47.8031 33.969,-19.8786 30.4044,-4.43064 "/>
   </g>
  </g>
  <path class="fil17" d="M50.9423 37.0681l10.6646 -25.5803 9.54616 -0.07448 11.0379 25.7298 -8.42768 0.07448 -2.75968 -5.44408 -8.27824 0 -2.98312 5.44408 -8.80048 -0.14944 0.00048 0zm94.7562 -4.14216l-0.03704 4.32208 16.0957 -0.07448c0.63896,-0.00304 3.01792,-0.2984 3.12992,-4.21056 0.1864,-6.14744 -0.81976,-7.45152 -3.91224,-7.52648 -3.09288,-0.07448 -8.90496,0 -8.90496,0l-0.03744 -3.27888 11.8855 0.03704 0.03696 -4.28456 -15.0525 0c0,0 -3.01792,-0.22344 -3.12944,2.72 -0.11192,2.94352 -0.07448,5.77512 -0.07448,5.77512 0,0 -0.26088,3.2044 3.61424,3.24144 2.95096,0.02832 6.39448,0.01872 9.59496,0.07448l-0.05664 3.31632 -13.1526 -0.11152zm-10.805 -21.4983l7.4516 0 0 4.28504 -7.4516 0 0 -4.28504zm0.17336 25.7899l7.30872 0.07448 0 -19.2413 -7.45768 -0.07448 0.14944 19.2413 -0.00048 0zm-34.6047 -19.3158l0 19.3158 7.45768 0 0.01352 -2.5428 0 -11.4034 0.06096 0 5.14616 0 0.68464 0 0 13.9462 5.87832 0 0.01352 -2.52928 0 -11.4169 5.2816 0 0.61016 0 0 13.8717 6.02728 0 -0.14896 -15.9602c0,0 0.37288,-3.20664 -3.28152,-3.28152 -3.65432,-0.07448 -27.7434,0 -27.7434,0l0 0.0004zm-16.0917 19.3088l6.4088 -0.07448 0.03704 -13.7859c0,0 -0.11152,-1.08016 1.08064,-1.15504 1.19208,-0.07456 5.29072,0 5.29072,0l1.0436 -0.03704 0.074 -4.25496 -10.7566 0.00608c0,0 -3.10336,-0.18512 -3.17784,3.16824 -0.07448,3.35336 0,16.1331 0,16.1331l-0.0004 0zm-20.5262 -10.7322l5.3696 0.07448 -2.6848 -7.90544 -2.6848 7.83096z"/>
  <path class="fil17" d="M50.9423 37.0681l10.6646 -25.5803 9.54616 -0.07448 11.0379 25.7298 -8.42768 0.07448 -2.75968 -5.44408 -8.27824 0 -2.98312 5.44408 -8.80048 -0.14944 0.00048 0zm94.7562 -4.14216l-0.03704 4.32208 16.0957 -0.07448c0.63896,-0.00304 3.01792,-0.2984 3.12992,-4.21056 0.1864,-6.14744 -0.81976,-7.45152 -3.91224,-7.52648 -3.09288,-0.07448 -8.90496,0 -8.90496,0l-0.03744 -3.27888 11.8855 0.03704 0.03696 -4.28456 -15.0525 0c0,0 -3.01792,-0.22344 -3.12944,2.72 -0.11192,2.94352 -0.07448,5.77512 -0.07448,5.77512 0,0 -0.26088,3.2044 3.61424,3.24144 2.95096,0.02832 6.39448,0.01872 9.59496,0.07448l-0.05664 3.31632 -13.1526 -0.11152zm-10.805 -21.4983l7.4516 0 0 4.28504 -7.4516 0 0 -4.28504zm0.17336 25.7899l7.30872 0.07448 0 -19.2413 -7.45768 -0.07448 0.14944 19.2413 -0.00048 0zm-34.6047 -19.3158l0 19.3158 7.45768 0 0.01352 -2.5428 0 -11.4034 0.06096 0 5.14616 0 0.68464 0 0 13.9462 5.87832 0 0.01352 -2.52928 0 -11.4169 5.2816 0 0.61016 0 0 13.8717 6.02728 0 -0.14896 -15.9602c0,0 0.37288,-3.20664 -3.28152,-3.28152 -3.65432,-0.07448 -27.7434,0 -27.7434,0l0 0.0004zm-16.0917 19.3088l6.4088 -0.07448 0.03704 -13.7859c0,0 -0.11152,-1.08016 1.08064,-1.15504 1.19208,-0.07456 5.29072,0 5.29072,0l1.0436 -0.03704 0.074 -4.25496 -10.7566 0.00608c0,0 -3.10336,-0.18512 -3.17784,3.16824 -0.07448,3.35336 0,16.1331 0,16.1331l-0.0004 0zm-20.5262 -10.7322l5.3696 0.07448 -2.6848 -7.90544 -2.6848 7.83096z"/>
 </g>
</svg>
