<?xml version="1.0" encoding="UTF-8"?>
<!DOCTYPE svg PUBLIC "-//W3C//DTD SVG 1.1//EN" "http://www.w3.org/Graphics/SVG/1.1/DTD/svg11.dtd">
<!-- Creator: CorelDRAW -->
<svg xmlns="http://www.w3.org/2000/svg" xml:space="preserve" width="168px" height="42px" style="shape-rendering:geometricPrecision; text-rendering:geometricPrecision; image-rendering:optimizeQuality; fill-rule:evenodd; clip-rule:evenodd"
viewBox="0 0 168 46.4"
 xmlns:xlink="http://www.w3.org/1999/xlink">
 <defs>
  <style type="text/css">
   <![CDATA[
    .fil14 {fill:none}
    .fil1 {fill:#00923F}
    .fil13 {fill:#6C3A76}
    .fil0 {fill:url(#id1)}
    .fil7 {fill:url(#id2)}
    .fil10 {fill:url(#id3)}
    .fil4 {fill:url(#id4)}
    .fil12 {fill:url(#id5)}
    .fil3 {fill:url(#id6)}
    .fil9 {fill:url(#id7)}
    .fil2 {fill:url(#id8)}
    .fil8 {fill:url(#id9)}
    .fil11 {fill:url(#id10)}
    .fil6 {fill:url(#id11)}
    .fil5 {fill:url(#id12)}
   ]]>
  </style>
   <clipPath id="id0">
    <path d="M52.4074 35.2681l10.2237 -24.5226 9.15144 -0.0716 10.5814 24.6658 -8.07896 0.07144 -2.64544 -5.21912 -7.93576 0 -2.85984 5.21912 -8.43648 -0.14304zm90.8382 -3.97112l-0.03568 4.14328 15.4302 -0.07136c0.61272,-0.00288 2.89328,-0.28584 3.00048,-4.03624 0.17872,-5.89344 -0.78592,-7.14352 -3.7504,-7.21512 -2.9648,-0.07136 -8.53656,0 -8.53656,0l-0.03584 -3.14312 11.3942 0.03568 0.0356 -4.1076 -14.4302 0c0,0 -2.89304,-0.21424 -3.00024,2.60744 -0.1072,2.82176 -0.07152,5.5364 -0.07152,5.5364 0,0 -0.24992,3.07176 3.46472,3.10736 2.8288,0.02712 6.12984,0.01784 9.19824,0.0712l-0.05432 3.17912 -12.6086 -0.10704zm-10.3582 -20.6094l7.1436 0 0 4.10776 -7.1436 0 0 -4.10776zm0.16632 24.7236l7.0064 0.07152 0 -18.4458 -7.14944 -0.07128 0.14304 18.4455zm-33.1738 -18.517l0 18.517 7.14944 0 0.01304 -2.43776 0 -10.9318 0.0584 0 4.93336 0 0.65632 0 0 13.3695 5.63512 0 0.01312 -2.42472 0 -10.9448 5.06304 0 0.58504 0 0 13.2981 5.77784 0 -0.14272 -15.3c0,0 0.35728,-3.07408 -3.14584,-3.1456 -3.50336,-0.0716 -26.5962,0 -26.5962,0zm-15.4266 18.5105l6.1436 -0.07144 0.03568 -13.2158c0,0 -0.10704,-1.03568 1.03608,-1.1072 1.14296,-0.07144 5.07176,0 5.07176,0l1.00024 -0.03568 0.07088 -4.07896 -10.3117 0.00568c0,0 -2.97488,-0.17736 -3.04656,3.03744 -0.07136,3.21456 0,15.466 0,15.466zm-19.6774 -10.2886l5.1476 0.07136 -2.57368 -7.57856 -2.57392 7.5072z"/>
   </clipPath>
  <linearGradient id="id1" gradientUnits="userSpaceOnUse" x1="24.5928" y1="15.3133" x2="24.5928" y2="27.8774">
   <stop offset="0" style="stop-color:#376291"/>
   <stop offset="1" style="stop-color:#974578"/>
  </linearGradient>
  <linearGradient id="id2" gradientUnits="userSpaceOnUse" x1="15.0944" y1="39.0385" x2="10.8579" y2="21.5826">
   <stop offset="0" style="stop-color:#DD137B"/>
   <stop offset="1" style="stop-color:#5F3A74"/>
  </linearGradient>
  <linearGradient id="id3" gradientUnits="userSpaceOnUse" xlink:href="#id2" x1="38.7366" y1="39.0385" x2="34.5001" y2="21.5826">
  </linearGradient>
  <linearGradient id="id4" gradientUnits="userSpaceOnUse" x1="14.1398" y1="4.77304" x2="34.9842" y2="4.44168">
   <stop offset="0" style="stop-color:#FCEE01"/>
   <stop offset="0.478431" style="stop-color:#00923F"/>
   <stop offset="1" style="stop-color:#FFF500"/>
  </linearGradient>
  <linearGradient id="id5" gradientUnits="userSpaceOnUse" x1="162.068" y1="33.8604" x2="70.8893" y2="10.4446">
   <stop offset="0" style="stop-color:#007CC3"/>
   <stop offset="1" style="stop-color:#901E78"/>
  </linearGradient>
  <linearGradient id="id6" gradientUnits="userSpaceOnUse" x1="27.0953" y1="16.3444" x2="41.2537" y2="8.44984">
   <stop offset="0" style="stop-color:#398FCA"/>
   <stop offset="1" style="stop-color:#84C225"/>
  </linearGradient>
  <linearGradient id="id7" gradientUnits="userSpaceOnUse" x1="20.3136" y1="35.3366" x2="23.6807" y2="43.6242">
   <stop offset="0" style="stop-color:#E77817"/>
   <stop offset="1" style="stop-color:#FFF500"/>
  </linearGradient>
  <linearGradient id="id8" gradientUnits="userSpaceOnUse" xlink:href="#id6" x1="9.74672" y1="17.0007" x2="20.1793" y2="7.79344">
  </linearGradient>
  <linearGradient id="id9" gradientUnits="userSpaceOnUse" x1="7.70248" y1="27.7945" x2="14.5748" y2="12.7892">
   <stop offset="0" style="stop-color:#5F3A74"/>
   <stop offset="1" style="stop-color:#398FCA"/>
  </linearGradient>
  <linearGradient id="id10" gradientUnits="userSpaceOnUse" xlink:href="#id9" x1="34.1821" y1="27.7402" x2="41.1195" y2="12.5925">
  </linearGradient>
  <linearGradient id="id11" gradientUnits="userSpaceOnUse" x1="18.5213" y1="38.9936" x2="14.7408" y2="31.1069">
   <stop offset="0" style="stop-color:#E77817"/>
   <stop offset="1" style="stop-color:#DD137B"/>
  </linearGradient>
  <linearGradient id="id12" gradientUnits="userSpaceOnUse" x1="24.4526" y1="2.02592" x2="24.4863" y2="5.32184">
   <stop offset="0" style="stop-color:#FCEE01"/>
   <stop offset="1" style="stop-color:#00923F"/>
  </linearGradient>
 </defs>
 <g id="Слой_x0020_1">
  <metadata id="CorelCorpID_0Corel-Layer"/>
  <path class="fil0" d="M21.2245 19.3022l0.73392 -3.66936 -5.79312 -2.09136 1.40904 2.46576 3.68184 1.27256 -0.03168 2.0224zm-0.23248 1.8524l3.63992 0.91 0.01304 0 3.63992 -0.91 -0.08808 1.02736 -2.84736 1.84936 -0.02936 2.3484 5.68056 3.26952 -6.36216 -2.31648 -6.0328 2.21784 5.35112 -3.17088 -0.02936 -2.3484 -2.84744 -1.84936 -0.088 -1.02736zm7.23648 -1.77248l-1.16024 -4.06912 5.952 -1.66464 -1.32032 2.34856 -3.66296 1.13152 0.19152 2.25368z"/>
  <path class="fil1" d="M33.8377 6.09976c0.89864,1.2264 3.00752,1.0668 4.80064,1.0668l0.13336 0c0.74936,0 1.39016,3.03192 2.00024,3.73384 0,-1.19416 -0.35752,-5.86744 -2.40032,-5.86744 -0.70512,0 -3.7192,0.87704 -4.53392,1.0668z"/>
  <path class="fil1" d="M14.9948 6.09968c-0.89856,1.2264 -3.00752,1.0668 -4.80064,1.0668l-0.13336 0c-0.74936,0 -1.39016,3.03192 -2.00024,3.73376 0,-1.19408 0.35752,-5.86736 2.40032,-5.86736 0.70512,0 3.7192,0.87696 4.53392,1.0668z"/>
  <path class="fil2" d="M24.5759 5.16152l-0.0136 2.02208c-10.7615,0.506 -16.93,9.3532 -19.2122,12.449 1.84512,-8.69328 8.0936,-14.2375 19.2258,-14.4711z"/>
  <path class="fil3" d="M24.5616 5.16152l0.01352 2.02208c10.7615,0.506 16.9301,9.3532 19.2123,12.449 -1.84512,-8.69328 -8.0936,-14.2375 -19.2258,-14.4711z"/>
  <polygon class="fil4" points="24.5623,7.18352 24.562,7.18336 24.5616,7.18352 24.5616,7.18328 10.124,2.29776 24.5258,2.03112 24.562,7.1328 24.5982,2.03112 39,2.29776 24.5623,7.18328 "/>
  <polygon class="fil5" points="31.6141,0.1776 24.5623,7.1836 17.3249,0.16416 24.5258,2.03104 "/>
  <polygon class="fil6" points="12.5001,32.9958 14.5428,26.9274 19.9838,36.8102 20.3502,39.045 20.7621,43.1732 14.3972,34.4982 "/>
  <path class="fil7" d="M8.62272 26.8886l0.23984 -2.34336 2.92584 -4.01752c0.91872,10.2875 2.26728,13.15 5.00312,20.575 -5.28632,-3.76728 -7.89208,-9.15968 -8.1688,-14.2141z"/>
  <path class="fil8" d="M7.63248 16.8434c2.31464,-3.67864 5.43016,-5.17432 8.78528,-5.81096 -6.32088,5.71528 -7.79824,11.5796 -7.87288,22.4905 -3.84384,-7.5876 -2.10352,-12.9743 -0.9124,-16.6795z"/>
  <polygon class="fil9" points="20.2403,39.0029 24.5358,45.9924 24.5358,39.4274 19.4585,32.9684 19.9838,36.8102 "/>
  <polygon class="fil9" points="28.8314,39.0029 24.5358,45.9924 24.5358,39.4274 29.6132,32.9684 29.0991,36.8102 "/>
  <polygon class="fil6" points="36.5829,32.9958 34.5402,26.9274 29.0991,36.8102 28.3209,43.1732 34.6858,34.4982 "/>
  <path class="fil10" d="M40.4336 26.8886l-0.23984 -2.34336 -2.92584 -4.01752c-0.91872,10.2875 -2.2672,13.15 -5.00304,20.575 5.28632,-3.76728 7.892,-9.15968 8.16872,-14.2141z"/>
  <path class="fil11" d="M41.5226 16.6851c-2.33664,-3.71352 -5.48168,-5.22336 -8.8688,-5.86616 6.38104,5.7696 7.8724,11.6896 7.94768,22.704 3.8804,-7.6596 2.12352,-13.0975 0.92112,-16.8378z"/>
  <path class="fil12" d="M52.4074 35.2681l10.2237 -24.5226 9.15144 -0.0716 10.5814 24.6658 -8.07896 0.07144 -2.64544 -5.21912 -7.93576 0 -2.85984 5.21912 -8.43648 -0.14304zm90.8382 -3.97112l-0.03568 4.14328 15.4302 -0.07136c0.61272,-0.00288 2.89328,-0.28584 3.00048,-4.03624 0.17872,-5.89344 -0.78592,-7.14352 -3.7504,-7.21512 -2.9648,-0.07136 -8.53656,0 -8.53656,0l-0.03584 -3.14312 11.3942 0.03568 0.0356 -4.1076 -14.4302 0c0,0 -2.89304,-0.21424 -3.00024,2.60744 -0.1072,2.82176 -0.07152,5.5364 -0.07152,5.5364 0,0 -0.24992,3.07176 3.46472,3.10736 2.8288,0.02712 6.12984,0.01784 9.19824,0.0712l-0.05432 3.17912 -12.6086 -0.10704zm-10.3582 -20.6094l7.1436 0 0 4.10776 -7.1436 0 0 -4.10776zm0.16632 24.7236l7.0064 0.07152 0 -18.4458 -7.14944 -0.07128 0.14304 18.4455zm-33.1738 -18.517l0 18.517 7.14944 0 0.01304 -2.43776 0 -10.9318 0.0584 0 4.93336 0 0.65632 0 0 13.3695 5.63512 0 0.01312 -2.42472 0 -10.9448 5.06304 0 0.58504 0 0 13.2981 5.77784 0 -0.14272 -15.3c0,0 0.35728,-3.07408 -3.14584,-3.1456 -3.50336,-0.0716 -26.5962,0 -26.5962,0zm-15.4266 18.5105l6.1436 -0.07144 0.03568 -13.2158c0,0 -0.10704,-1.03568 1.03608,-1.1072 1.14296,-0.07144 5.07176,0 5.07176,0l1.00024 -0.03568 0.07088 -4.07896 -10.3117 0.00568c0,0 -2.97488,-0.17736 -3.04656,3.03744 -0.07136,3.21456 0,15.466 0,15.466zm-19.6774 -10.2886l5.1476 0.07136 -2.57368 -7.57856 -2.57392 7.5072z"/>
  <g style="clip-path:url(#id0)">
   <g id="_110725104">
    <polygon id="_1107251761" class="fil13" points="37.5986,-6.88016 145.939,-25.2459 162.296,-44.6698 56.9255,-46.0937 36.1362,-19.3238 32.7187,-4.51488 "/>
   </g>
  </g>
  <path class="fil14" d="M52.4074 35.2681l10.2237 -24.5226 9.15144 -0.0716 10.5814 24.6658 -8.07896 0.07144 -2.64544 -5.21912 -7.93576 0 -2.85984 5.21912 -8.43648 -0.14304zm90.8382 -3.97112l-0.03568 4.14328 15.4302 -0.07136c0.61272,-0.00288 2.89328,-0.28584 3.00048,-4.03624 0.17872,-5.89344 -0.78592,-7.14352 -3.7504,-7.21512 -2.9648,-0.07136 -8.53656,0 -8.53656,0l-0.03584 -3.14312 11.3942 0.03568 0.0356 -4.1076 -14.4302 0c0,0 -2.89304,-0.21424 -3.00024,2.60744 -0.1072,2.82176 -0.07152,5.5364 -0.07152,5.5364 0,0 -0.24992,3.07176 3.46472,3.10736 2.8288,0.02712 6.12984,0.01784 9.19824,0.0712l-0.05432 3.17912 -12.6086 -0.10704zm-10.3582 -20.6094l7.1436 0 0 4.10776 -7.1436 0 0 -4.10776zm0.16632 24.7236l7.0064 0.07152 0 -18.4458 -7.14944 -0.07128 0.14304 18.4455zm-33.1738 -18.517l0 18.517 7.14944 0 0.01304 -2.43776 0 -10.9318 0.0584 0 4.93336 0 0.65632 0 0 13.3695 5.63512 0 0.01312 -2.42472 0 -10.9448 5.06304 0 0.58504 0 0 13.2981 5.77784 0 -0.14272 -15.3c0,0 0.35728,-3.07408 -3.14584,-3.1456 -3.50336,-0.0716 -26.5962,0 -26.5962,0zm-15.4266 18.5105l6.1436 -0.07144 0.03568 -13.2158c0,0 -0.10704,-1.03568 1.03608,-1.1072 1.14296,-0.07144 5.07176,0 5.07176,0l1.00024 -0.03568 0.07088 -4.07896 -10.3117 0.00568c0,0 -2.97488,-0.17736 -3.04656,3.03744 -0.07136,3.21456 0,15.466 0,15.466zm-19.6774 -10.2886l5.1476 0.07136 -2.57368 -7.57856 -2.57392 7.5072z"/>
 </g>
</svg>
